<svg width="33" height="37" viewBox="0 0 33 37" fill="none" xmlns="http://www.w3.org/2000/svg">
<path d="M8.5 5.75H5C4.07174 5.75 3.1815 6.11875 2.52513 6.77513C1.86875 7.4315 1.5 8.32174 1.5 9.25V30.25C1.5 31.1783 1.86875 32.0685 2.52513 32.7249C3.1815 33.3813 4.07174 33.75 5 33.75H14.9697M26 18V9.25C26 8.32174 25.6313 7.4315 24.9749 6.77513C24.3185 6.11875 23.4283 5.75 22.5 5.75H19" stroke="#333333" stroke-width="3" stroke-linecap="round" stroke-linejoin="round"/>
<path d="M15.5 2.25H12C10.067 2.25 8.5 3.817 8.5 5.75C8.5 7.683 10.067 9.25 12 9.25H15.5C17.433 9.25 19 7.683 19 5.75C19 3.817 17.433 2.25 15.5 2.25Z" stroke="#333333" stroke-width="3" stroke-linecap="round" stroke-linejoin="round"/>
<path d="M8.5 16.25H15.5M8.5 23.25H13.75" stroke="#333333" stroke-width="3" stroke-linecap="round" stroke-linejoin="round"/>
<path d="M23.375 32C25.7912 32 27.75 30.0412 27.75 27.625C27.75 25.2088 25.7912 23.25 23.375 23.25C20.9588 23.25 19 25.2088 19 27.625C19 30.0412 20.9588 32 23.375 32Z" stroke="#333333" stroke-width="3" stroke-linecap="round" stroke-linejoin="round"/>
<path d="M26.875 31.125L31.25 35.5" stroke="#333333" stroke-width="3" stroke-linecap="round" stroke-linejoin="round"/>
</svg>
