<svg width="80" height="80" viewBox="0 0 80 80" fill="none" xmlns="http://www.w3.org/2000/svg">
<path d="M32.0667 53.3333L37.0667 58.3333L47.9 48.3333" fill="#EF3340" fill-opacity="0.1"/>
<path d="M32.0667 53.3333L37.0667 58.3333L47.9 48.3333" stroke="#EF3340" stroke-width="5" stroke-linecap="round" stroke-linejoin="round"/>
<path d="M29.3667 6.66675L17.3 18.7667" stroke="#EF3340" stroke-width="5" stroke-miterlimit="10" stroke-linecap="round" stroke-linejoin="round"/>
<path d="M50.6333 6.66675L62.7 18.7667" stroke="#EF3340" stroke-width="5" stroke-miterlimit="10" stroke-linecap="round" stroke-linejoin="round"/>
<path d="M6.66675 26.1667C6.66675 20 9.96675 19.5 14.0667 19.5H65.9334C70.0334 19.5 73.3334 20 73.3334 26.1667C73.3334 33.3333 70.0334 32.8333 65.9334 32.8333H14.0667C9.96675 32.8333 6.66675 33.3333 6.66675 26.1667Z" fill="#EF3340" fill-opacity="0.1" stroke="#EF3340" stroke-width="5"/>
<path d="M11.6667 33.3333L16.3667 62.1332C17.4334 68.5999 20.0001 73.3333 29.5334 73.3333H49.6334C60.0001 73.3333 61.5334 68.7999 62.7334 62.5333L68.3334 33.3333" fill="#EF3340" fill-opacity="0.1"/>
<path d="M11.6667 33.3333L16.3667 62.1332C17.4334 68.5999 20.0001 73.3333 29.5334 73.3333H49.6334C60.0001 73.3333 61.5334 68.7999 62.7334 62.5333L68.3334 33.3333" stroke="#EF3340" stroke-width="5" stroke-linecap="round"/>
</svg>
