<svg width="80" height="80" viewBox="0 0 80 80" fill="none" xmlns="http://www.w3.org/2000/svg">
<path d="M10.5669 24.8L40.0002 41.8333L69.2335 24.8999" fill="#EF3340" fill-opacity="0.1"/>
<path d="M10.5669 24.8L40.0002 41.8333L69.2335 24.8999" stroke="#EF3340" stroke-width="5" stroke-linecap="round" stroke-linejoin="round"/>
<path d="M40.0002 72.0334V41.8" stroke="#EF3340" stroke-width="5" stroke-linecap="round" stroke-linejoin="round"/>
<path d="M33.1001 8.26675L15.3001 18.1669C11.2667 20.4002 7.9668 26.0001 7.9668 30.6001V49.4335C7.9668 54.0335 11.2667 59.6335 15.3001 61.8668L33.1001 71.7669C36.9001 73.8669 43.1334 73.8669 46.9334 71.7669L64.7335 61.8668C68.7668 59.6335 72.0667 54.0335 72.0667 49.4335V30.6001C72.0667 26.0001 68.7668 20.4002 64.7335 18.1669L46.9334 8.26675C43.1 6.13341 36.9001 6.13341 33.1001 8.26675Z" fill="#EF3340" fill-opacity="0.1" stroke="#EF3340" stroke-width="5" stroke-linecap="round" stroke-linejoin="round"/>
<path d="M56.6667 44.1332V31.9333L25.0334 13.6665" fill="#EF3340" fill-opacity="0.1"/>
<path d="M56.6667 44.1332V31.9333L25.0334 13.6665" stroke="#EF3340" stroke-width="5" stroke-linecap="round" stroke-linejoin="round"/>
</svg>
