<svg width="40" height="40" viewBox="0 0 40 40" fill="none" xmlns="http://www.w3.org/2000/svg">
<path d="M20 30.3333C23.6819 30.3333 26.6667 27.3486 26.6667 23.6667C26.6667 19.9848 23.6819 17 20 17C16.3181 17 13.3334 19.9848 13.3334 23.6667C13.3334 27.3486 16.3181 30.3333 20 30.3333Z" fill="white" fill-opacity="0.1" stroke="white" stroke-width="2" stroke-miterlimit="10" stroke-linecap="round" stroke-linejoin="round"/>
<path d="M17.4 23.8333L18.4834 24.9166C18.8 25.2333 19.3167 25.2333 19.6334 24.9333L22.6 22.2" fill="white" fill-opacity="0.1"/>
<path d="M17.4 23.8333L18.4834 24.9166C18.8 25.2333 19.3167 25.2333 19.6334 24.9333L22.6 22.2" stroke="white" stroke-width="2" stroke-linecap="round" stroke-linejoin="round"/>
<path d="M13.3333 36.6667H26.6667C33.3667 36.6667 34.5667 33.9833 34.9167 30.7167L36.1667 17.3833C36.6167 13.3167 35.45 10 28.3333 10H11.6667C4.55 10 3.38333 13.3167 3.83333 17.3833L5.08333 30.7167C5.43333 33.9833 6.63333 36.6667 13.3333 36.6667Z" fill="white" fill-opacity="0.1" stroke="white" stroke-width="2" stroke-miterlimit="10" stroke-linecap="round" stroke-linejoin="round"/>
<path d="M13.3334 9.99992V8.66658C13.3334 5.71658 13.3334 3.33325 18.6667 3.33325H21.3334C26.6667 3.33325 26.6667 5.71658 26.6667 8.66658V9.99992" fill="white" fill-opacity="0.1"/>
<path d="M13.3334 9.99992V8.66658C13.3334 5.71658 13.3334 3.33325 18.6667 3.33325H21.3334C26.6667 3.33325 26.6667 5.71658 26.6667 8.66658V9.99992" stroke="white" stroke-width="2" stroke-miterlimit="10" stroke-linecap="round" stroke-linejoin="round"/>
<path d="M36.0833 18.3333C33.2 20.4333 30 21.8999 26.6833 22.7333L36.0833 18.3333Z" fill="white" fill-opacity="0.1"/>
<path d="M36.0833 18.3333C33.2 20.4333 30 21.8999 26.6833 22.7333" stroke="white" stroke-width="2" stroke-miterlimit="10" stroke-linecap="round" stroke-linejoin="round"/>
<path d="M4.3667 18.7834C7.15003 20.6834 10.1834 22.0334 13.3334 22.8001L4.3667 18.7834Z" fill="white" fill-opacity="0.1"/>
<path d="M4.3667 18.7834C7.15003 20.6834 10.1834 22.0334 13.3334 22.8001" stroke="white" stroke-width="2" stroke-miterlimit="10" stroke-linecap="round" stroke-linejoin="round"/>
</svg>
