<svg width="80" height="80" viewBox="0 0 80 80" fill="none" xmlns="http://www.w3.org/2000/svg">
<path d="M73.2334 61.1001C73.2334 62.3001 72.9668 63.5334 72.4001 64.7334C71.8334 65.9334 71.1001 67.0667 70.1334 68.1334C68.5001 69.9334 66.7001 71.2334 64.6667 72.0667C62.6667 72.9001 60.5001 73.3334 58.1668 73.3334C54.7668 73.3334 51.1334 72.5334 47.3001 70.9001C43.4667 69.2667 39.6334 67.0667 35.8334 64.3001C32.0001 61.5001 28.3667 58.4001 24.9001 54.9667C21.4667 51.5001 18.3667 47.8667 15.6001 44.0667C12.8667 40.2667 10.6667 36.4667 9.06675 32.7001C7.46675 28.9001 6.66675 25.2667 6.66675 21.8001C6.66675 19.5334 7.06675 17.3667 7.86675 15.3667C8.66675 13.3334 9.93341 11.4667 11.7001 9.80008C13.8334 7.70008 16.1667 6.66675 18.6334 6.66675C19.5667 6.66675 20.5001 6.86675 21.3334 7.26675C22.2001 7.66675 22.9667 8.26675 23.5667 9.13341L31.3001 20.0334C31.9001 20.8667 32.3334 21.6334 32.6334 22.3667C32.9334 23.0667 33.1001 23.7667 33.1001 24.4001C33.1001 25.2001 32.8668 26.0001 32.4001 26.7667C31.9668 27.5334 31.3334 28.3334 30.5334 29.1334L28.0001 31.7667C27.6334 32.1334 27.4667 32.5667 27.4667 33.1001C27.4667 33.3667 27.5001 33.6001 27.5668 33.8667C27.6667 34.1334 27.7668 34.3334 27.8334 34.5334C28.4334 35.6334 29.4667 37.0667 30.9334 38.8001C32.4334 40.5334 34.0334 42.3001 35.7667 44.0667C37.5667 45.8334 39.3001 47.4667 41.0667 48.9667C42.8001 50.4334 44.2334 51.4334 45.3667 52.0334C45.5334 52.1001 45.7334 52.2001 45.9668 52.3001C46.2334 52.4001 46.5001 52.4334 46.8001 52.4334C47.3667 52.4334 47.8001 52.2334 48.1667 51.8667L50.7001 49.3667C51.5334 48.5334 52.3334 47.9001 53.1001 47.5001C53.8668 47.0334 54.6334 46.8001 55.4667 46.8001C56.1001 46.8001 56.7668 46.9334 57.5001 47.2334C58.2334 47.5334 59.0001 47.9667 59.8334 48.5334L70.8668 56.3667C71.7334 56.9667 72.3334 57.6667 72.7001 58.5001C73.0334 59.3334 73.2334 60.1667 73.2334 61.1001Z" fill="#EF3340" fill-opacity="0.1" stroke="#EF3340" stroke-width="5" stroke-miterlimit="10"/>
<path d="M61.6667 29.9999C61.6667 27.9999 60.1 24.9333 57.7667 22.4333C55.6333 20.1333 52.8 18.3333 50 18.3333" fill="#EF3340" fill-opacity="0.1"/>
<path d="M61.6667 29.9999C61.6667 27.9999 60.1 24.9333 57.7667 22.4333C55.6333 20.1333 52.8 18.3333 50 18.3333" stroke="#EF3340" stroke-width="5" stroke-linecap="round" stroke-linejoin="round"/>
<path d="M73.3333 30.0001C73.3333 17.1001 62.9 6.66675 50 6.66675L73.3333 30.0001Z" fill="#EF3340" fill-opacity="0.1"/>
<path d="M73.3333 30.0001C73.3333 17.1001 62.9 6.66675 50 6.66675" stroke="#EF3340" stroke-width="5" stroke-linecap="round" stroke-linejoin="round"/>
</svg>
