<svg width="80" height="80" viewBox="0 0 80 80" fill="none" xmlns="http://www.w3.org/2000/svg">
<path d="M6.66675 33.3333H73.3334" stroke="#EF3340" stroke-width="5" stroke-miterlimit="10" stroke-linecap="round" stroke-linejoin="round"/>
<path d="M38.4943 68.3326H21.4611C9.62773 68.3326 6.62769 65.3992 6.62769 53.6992V26.2992C6.62769 15.6992 9.09445 12.2992 18.3945 11.7659C19.3278 11.7326 20.3611 11.6992 21.4611 11.6992H58.4943C70.3277 11.6992 73.3277 14.6326 73.3277 26.3326V41.0326" fill="#EF3340" fill-opacity="0.1"/>
<path d="M38.4943 68.3326H21.4611C9.62773 68.3326 6.62769 65.3992 6.62769 53.6992V26.2992C6.62769 15.6992 9.09445 12.2992 18.3945 11.7659C19.3278 11.7326 20.3611 11.6992 21.4611 11.6992H58.4943C70.3277 11.6992 73.3277 14.6326 73.3277 26.3325V41.0326" stroke="#EF3340" stroke-width="5" stroke-linecap="round" stroke-linejoin="round"/>
<path d="M20 53.3333H33.3333" stroke="#EF3340" stroke-width="5" stroke-miterlimit="10" stroke-linecap="round" stroke-linejoin="round"/>
<path d="M73.3334 60.0001C73.3334 62.5001 72.6334 64.8667 71.4 66.8667C69.1 70.7334 64.8667 73.3334 60.0001 73.3334C55.1334 73.3334 50.9001 70.7334 48.6001 66.8667C47.3668 64.8667 46.6667 62.5001 46.6667 60.0001C46.6667 52.6334 52.6334 46.6667 60.0001 46.6667C67.3667 46.6667 73.3334 52.6334 73.3334 60.0001Z" fill="#EF3340" fill-opacity="0.1" stroke="#EF3340" stroke-width="5" stroke-miterlimit="10" stroke-linecap="round" stroke-linejoin="round"/>
<path d="M54.8047 59.9983L58.1047 63.2984L65.2047 56.7317" fill="#EF3340" fill-opacity="0.1"/>
<path d="M54.8047 59.9983L58.1047 63.2984L65.2047 56.7317" stroke="#EF3340" stroke-width="5" stroke-linecap="round" stroke-linejoin="round"/>
</svg>
