<svg width="40" height="40" viewBox="0 0 40 40" fill="none" xmlns="http://www.w3.org/2000/svg">
<path d="M36.6666 21.6667V15C36.6666 6.66666 33.3333 3.33333 24.9999 3.33333H14.9999C6.66659 3.33333 3.33325 6.66666 3.33325 15V25C3.33325 33.3333 6.66659 36.6667 14.9999 36.6667H21.6666" fill="white" fill-opacity="0.1"/>
<path d="M36.6666 21.6667V15C36.6666 6.66666 33.3333 3.33333 24.9999 3.33333H14.9999C6.66659 3.33333 3.33325 6.66666 3.33325 15V25C3.33325 33.3333 6.66659 36.6667 14.9999 36.6667H21.6666" stroke="white" stroke-width="2" stroke-linecap="round" stroke-linejoin="round"/>
<path d="M12.2166 24.15L16.1832 19C16.7499 18.2667 17.7999 18.1333 18.5332 18.7L21.5833 21.1C22.3166 21.6667 23.3666 21.5333 23.9332 20.8167L27.7833 15.85" fill="white" fill-opacity="0.1"/>
<path d="M12.2166 24.15L16.1832 19C16.7499 18.2667 17.7999 18.1333 18.5332 18.7L21.5833 21.1C22.3166 21.6667 23.3666 21.5333 23.9332 20.8167L27.7833 15.85" stroke="white" stroke-width="2" stroke-linecap="round" stroke-linejoin="round"/>
<path d="M32.4666 26.3667L32.9333 27.3167C33.1666 27.7833 33.7499 28.2167 34.2666 28.3167L34.8999 28.4167C36.7999 28.7333 37.2499 30.1333 35.8833 31.5167L35.2999 32.1C34.9166 32.5 34.7 33.2667 34.8166 33.8L34.8999 34.15C35.4166 36.45 34.2 37.3333 32.2 36.1333L31.7666 35.8833C31.2499 35.5833 30.4166 35.5833 29.8999 35.8833L29.4666 36.1333C27.4499 37.35 26.2333 36.45 26.7666 34.15L26.8499 33.8C26.9666 33.2667 26.75 32.5 26.3666 32.1L25.7833 31.5167C24.4166 30.1333 24.8666 28.7333 26.7666 28.4167L27.3999 28.3167C27.8999 28.2333 28.4999 27.7833 28.7333 27.3167L29.1999 26.3667C30.0999 24.55 31.5666 24.55 32.4666 26.3667Z" fill="white" fill-opacity="0.1" stroke="white" stroke-width="2" stroke-linecap="round" stroke-linejoin="round"/>
</svg>
