<svg width="41" height="40" viewBox="0 0 41 40" fill="none" xmlns="http://www.w3.org/2000/svg">
<path d="M14.9499 23.3333H7.16659C5.33325 23.3333 3.83325 24.8333 3.83325 26.6667V36.6667H14.9499V23.3333Z" fill="white" fill-opacity="0.1" stroke="white" stroke-width="2" stroke-miterlimit="10" stroke-linecap="round" stroke-linejoin="round"/>
<path d="M22.7167 16.6667H18.2667C16.4333 16.6667 14.9333 18.1667 14.9333 20V36.6667H26.05V20C26.05 18.1667 24.5667 16.6667 22.7167 16.6667Z" fill="white" fill-opacity="0.1" stroke="white" stroke-width="2" stroke-miterlimit="10" stroke-linecap="round" stroke-linejoin="round"/>
<path d="M33.8334 28.3333H26.05V36.6667H37.1667V31.6667C37.1667 29.8333 35.6667 28.3333 33.8334 28.3333Z" fill="white" fill-opacity="0.1" stroke="white" stroke-width="2" stroke-miterlimit="10" stroke-linecap="round" stroke-linejoin="round"/>
<path d="M21.3666 3.45001L22.2499 5.21667C22.3666 5.46667 22.6832 5.7 22.9499 5.73334L24.5499 6.00001C25.5666 6.16668 25.8166 6.91664 25.0832 7.63331L23.8332 8.88331C23.6166 9.09998 23.4999 9.49999 23.5666 9.78332L23.9166 11.3167C24.1999 12.5333 23.5499 13 22.4832 12.3667L20.9832 11.4834C20.7166 11.3167 20.2666 11.3167 19.9999 11.4834L18.4999 12.3667C17.4332 13 16.7832 12.5333 17.0666 11.3167L17.4166 9.78332C17.4832 9.49999 17.3666 9.08331 17.1499 8.88331L15.9166 7.64999C15.1832 6.91666 15.4166 6.18331 16.4499 6.01664L18.0499 5.75002C18.3166 5.70002 18.6332 5.46669 18.7499 5.23336L19.6332 3.46664C20.1166 2.49998 20.8832 2.50001 21.3666 3.45001Z" fill="white" fill-opacity="0.1" stroke="white" stroke-width="2" stroke-linecap="round" stroke-linejoin="round"/>
</svg>
