<svg width="38" height="38" viewBox="0 0 38 38" fill="none" xmlns="http://www.w3.org/2000/svg">
<path d="M19 13.75C22.3827 13.75 25.125 11.0077 25.125 7.625C25.125 4.24226 22.3827 1.5 19 1.5C15.6173 1.5 12.875 4.24226 12.875 7.625C12.875 11.0077 15.6173 13.75 19 13.75Z" stroke="#333333" stroke-width="3" stroke-linecap="round" stroke-linejoin="round"/>
<path d="M1.5 33.875C1.5 26.1426 8.55163 19.875 17.25 19.875" stroke="#333333" stroke-width="3" stroke-linecap="round" stroke-linejoin="round"/>
<path d="M27.75 35.625C32.0992 35.625 35.625 32.0992 35.625 27.75C35.625 23.4008 32.0992 19.875 27.75 19.875C23.4008 19.875 19.875 23.4008 19.875 27.75C19.875 32.0992 23.4008 35.625 27.75 35.625Z" stroke="#333333" stroke-width="3"/>
<path d="M26.875 25.125V28.625H30.375" stroke="#333333" stroke-width="3" stroke-linecap="round" stroke-linejoin="round"/>
</svg>
