<svg width="42" height="42" viewBox="0 0 42 42" fill="none" xmlns="http://www.w3.org/2000/svg">
<path d="M18.5252 3.67586C19.1447 3.05719 19.9735 2.69315 20.8482 2.65557C21.7229 2.61799 22.5799 2.9096 23.2502 3.47286L23.4742 3.67761L26.7992 7.00086H31.4997C32.3824 7.00102 33.2325 7.33471 33.8796 7.93507C34.5266 8.53544 34.923 9.35814 34.9892 10.2384L34.9997 10.5009V15.2014L38.3247 18.5264C38.9439 19.1459 39.3082 19.9751 39.3458 20.8502C39.3834 21.7253 39.0915 22.5827 38.5277 23.2531L38.323 23.4754L34.998 26.8004V31.5009C34.9982 32.3839 34.6647 33.2344 34.0643 33.8818C33.4639 34.5293 32.641 34.9259 31.7605 34.9921L31.4997 35.0009H26.801L23.476 38.3259C22.8564 38.945 22.0272 39.3094 21.1521 39.3469C20.277 39.3845 19.4196 39.0926 18.7492 38.5289L18.527 38.3259L15.202 35.0009H10.4997C9.6167 35.0011 8.76621 34.6676 8.11874 34.0672C7.47128 33.4668 7.07468 32.6439 7.00845 31.7634L6.9997 31.5009V26.8004L3.6747 23.4754C3.05554 22.8558 2.6912 22.0266 2.65362 21.1515C2.61603 20.2764 2.90794 19.419 3.4717 18.7486L3.6747 18.5264L6.9997 15.2014V10.5009C6.99987 9.61815 7.33355 8.7681 7.93392 8.12101C8.53428 7.47391 9.35698 7.07756 10.2372 7.01136L10.4997 7.00086H15.2002L18.5252 3.67586ZM20.9997 6.15386L17.6747 9.47886C17.0934 10.0592 16.3265 10.4167 15.5082 10.4886L15.2002 10.5009H10.4997V15.2014C10.4999 16.0237 10.2106 16.8198 9.68245 17.4501L9.4742 17.6776L6.1492 21.0026L9.4742 24.3259C10.0552 24.9069 10.4133 25.6738 10.4857 26.4924L10.4997 26.8004V31.5009H15.2002C16.0225 31.5006 16.8187 31.79 17.449 32.3181L17.6765 32.5264L20.9997 35.8514L24.3247 32.5264C24.9057 31.9453 25.6727 31.5873 26.4912 31.5149L26.7992 31.5009H31.4997V26.8004C31.4995 25.978 31.7888 25.1819 32.317 24.5516L32.5252 24.3241L35.8502 21.0009L32.5252 17.6759C31.9442 17.0948 31.5861 16.3279 31.5137 15.5094L31.4997 15.2014V10.5009H26.7992C25.9769 10.5011 25.1808 10.2117 24.5505 9.68361L24.323 9.47536L20.998 6.15036L20.9997 6.15386ZM26.3897 15.7229C26.7046 15.409 27.1272 15.2268 27.5716 15.2132C28.016 15.1996 28.449 15.3557 28.7824 15.6498C29.1159 15.9439 29.325 16.3538 29.3672 16.7964C29.4093 17.2391 29.2814 17.6811 29.0095 18.0329L28.8625 18.1974L20.3225 26.7374C19.989 27.0712 19.5446 27.271 19.0736 27.2987C18.6026 27.3265 18.1378 27.1803 17.7675 26.8879L17.5995 26.7391L13.3925 22.5321C13.0753 22.2179 12.8901 21.7944 12.875 21.3481C12.8599 20.9019 13.0158 20.4668 13.311 20.1318C13.6062 19.7969 14.0182 19.5874 14.4628 19.5463C14.9074 19.5051 15.3508 19.6355 15.7025 19.9106L15.867 20.0559L18.961 23.1499L26.388 15.7229H26.3897Z" fill="#333333"/>
</svg>
