<svg width="37" height="38" viewBox="0 0 37 38" fill="none" xmlns="http://www.w3.org/2000/svg">
<path d="M33.25 11.125V8.5C33.25 7.57174 32.8813 6.6815 32.2249 6.02513C31.5685 5.36875 30.6783 5 29.75 5H5.25C4.32174 5 3.4315 5.36875 2.77513 6.02513C2.11875 6.6815 1.75 7.57174 1.75 8.5V33C1.75 33.9283 2.11875 34.8185 2.77513 35.4749C3.4315 36.1313 4.32174 36.5 5.25 36.5H11.375M24.5 1.5V8.5M10.5 1.5V8.5M1.75 15.5H10.5M27.125 28.625L24.5 26.4375V22.5" stroke="#333333" stroke-width="3" stroke-linecap="round" stroke-linejoin="round"/>
<path d="M35 26C35 28.7848 33.8938 31.4555 31.9246 33.4246C29.9555 35.3938 27.2848 36.5 24.5 36.5C21.7152 36.5 19.0445 35.3938 17.0754 33.4246C15.1062 31.4555 14 28.7848 14 26C14 23.2152 15.1062 20.5445 17.0754 18.5754C19.0445 16.6062 21.7152 15.5 24.5 15.5C27.2848 15.5 29.9555 16.6062 31.9246 18.5754C33.8938 20.5445 35 23.2152 35 26V26Z" stroke="#333333" stroke-width="3" stroke-linecap="round" stroke-linejoin="round"/>
</svg>
