<svg width="40" height="40" viewBox="0 0 40 40" fill="none" xmlns="http://www.w3.org/2000/svg">
<path d="M35.0167 18.7V26.1833C35.0167 33.6666 32.0333 36.6667 24.5333 36.6667H15.55C14.5834 36.6667 13.7 36.6167 12.8833 36.5" fill="white" fill-opacity="0.1"/>
<path d="M35.0167 18.7V26.1833C35.0167 33.6666 32.0333 36.6667 24.5333 36.6667H15.55C14.5834 36.6667 13.7 36.6167 12.8833 36.5" stroke="white" stroke-width="2" stroke-linecap="round" stroke-linejoin="round"/>
<path d="M5.06665 25.8667V18.7" stroke="white" stroke-width="2" stroke-linecap="round" stroke-linejoin="round"/>
<path d="M20.0502 20C23.1002 20 25.3502 17.5168 25.0502 14.4668L23.9334 3.33334H16.1501L15.0335 14.4668C14.7335 17.5168 17.0002 20 20.0502 20Z" fill="white" fill-opacity="0.1" stroke="white" stroke-width="2" stroke-linecap="round" stroke-linejoin="round"/>
<path d="M30.55 20C33.9167 20 36.3834 17.2666 36.05 13.9166L35.5833 9.3333C34.9833 4.99997 33.3167 3.33334 28.95 3.33334H23.8667L25.0334 15.0167C25.3334 17.7667 27.8 20 30.55 20Z" fill="white" fill-opacity="0.1" stroke="white" stroke-width="2" stroke-linecap="round" stroke-linejoin="round"/>
<path d="M9.44998 20C12.2 20 14.6833 17.7667 14.95 15.0167L15.3167 11.3334L16.1166 3.33334H11.0333C6.66667 3.33334 5.00003 4.99997 4.40003 9.3333L3.93332 13.9166C3.59999 17.2666 6.08332 20 9.44998 20Z" fill="white" fill-opacity="0.1" stroke="white" stroke-width="2" stroke-linecap="round" stroke-linejoin="round"/>
<path d="M15.0001 31.6667C15.0001 32.9167 14.6501 34.1001 14.0334 35.1001C13.7167 35.6334 13.3334 36.1167 12.8834 36.5C12.8334 36.5667 12.7834 36.6167 12.7168 36.6667C11.5501 37.7167 10.0167 38.3333 8.33341 38.3333C6.30008 38.3333 4.48337 37.4166 3.28337 35.9833C3.25003 35.9333 3.20012 35.9 3.16679 35.85C2.96679 35.6167 2.78344 35.3668 2.63344 35.1001C2.01678 34.1001 1.66675 32.9167 1.66675 31.6667C1.66675 29.5667 2.63341 27.6833 4.16675 26.4667C4.45008 26.2333 4.75004 26.0334 5.06671 25.8667C6.03338 25.3167 7.15008 25 8.33341 25C10.0001 25 11.5 25.6 12.6667 26.6166C12.8667 26.7666 13.0501 26.95 13.2167 27.1334C14.3167 28.3334 15.0001 29.9167 15.0001 31.6667Z" fill="white" fill-opacity="0.1" stroke="white" stroke-width="2" stroke-miterlimit="10" stroke-linecap="round" stroke-linejoin="round"/>
<path d="M10.8167 31.6333H5.8501" stroke="white" stroke-width="2" stroke-miterlimit="10" stroke-linecap="round" stroke-linejoin="round"/>
<path d="M8.3335 29.2V34.1834" stroke="white" stroke-width="2" stroke-miterlimit="10" stroke-linecap="round" stroke-linejoin="round"/>
</svg>
