<svg width="80" height="80" viewBox="0 0 80 80" fill="none" xmlns="http://www.w3.org/2000/svg">
<path d="M26.6667 6.66675V16.6667" stroke="#EF3340" stroke-width="5" stroke-miterlimit="10" stroke-linecap="round" stroke-linejoin="round"/>
<path d="M53.3333 6.66675V16.6667" stroke="#EF3340" stroke-width="5" stroke-miterlimit="10" stroke-linecap="round" stroke-linejoin="round"/>
<path d="M23.3333 36.6667H49.9999" stroke="#EF3340" stroke-width="5" stroke-miterlimit="10" stroke-linecap="round" stroke-linejoin="round"/>
<path d="M23.3333 50H39.9999" stroke="#EF3340" stroke-width="5" stroke-miterlimit="10" stroke-linecap="round" stroke-linejoin="round"/>
<path d="M50 73.3334H30C13.3333 73.3334 10 66.4668 10 52.7334V32.1667C10 16.5001 15.5667 12.3001 26.6667 11.6667H53.3333C64.4333 12.2667 70 16.5001 70 32.1667V53.3334" fill="#EF3340" fill-opacity="0.1"/>
<path d="M50 73.3334H30C13.3333 73.3334 10 66.4667 10 52.7334V32.1667C10 16.5001 15.5667 12.3001 26.6667 11.6667H53.3333C64.4333 12.2667 70 16.5001 70 32.1667V53.3334" stroke="#EF3340" stroke-width="5" stroke-miterlimit="10" stroke-linecap="round" stroke-linejoin="round"/>
<path d="M70 53.3333L50 73.3333V63.3333C50 56.6666 53.3333 53.3333 60 53.3333H70Z" fill="#EF3340" fill-opacity="0.1" stroke="#EF3340" stroke-width="5" stroke-linecap="round" stroke-linejoin="round"/>
</svg>
