<svg width="80" height="80" viewBox="0 0 80 80" fill="none" xmlns="http://www.w3.org/2000/svg">
<path d="M50.0001 6.66675V40.0001C50.0001 43.6667 47.0001 46.6667 43.3334 46.6667H6.66675V25.4001C9.10008 28.3001 12.8335 30.1001 16.9668 30.0001C20.3335 29.9334 23.3668 28.6334 25.6334 26.4668C26.6668 25.6001 27.5335 24.5 28.2002 23.3C29.4002 21.2667 30.0667 18.8667 30.0001 16.3667C29.9001 12.4667 28.1668 9.03341 25.4668 6.66675H50.0001Z" fill="#EF3340" fill-opacity="0.1" stroke="#EF3340" stroke-width="5" stroke-linecap="round" stroke-linejoin="round"/>
<path d="M73.3334 46.6667V56.6667C73.3334 62.2001 68.8667 66.6667 63.3334 66.6667H60.0001C60.0001 63.0001 57.0001 60.0001 53.3334 60.0001C49.6667 60.0001 46.6667 63.0001 46.6667 66.6667H33.3334C33.3334 63.0001 30.3334 60.0001 26.6667 60.0001C23.0001 60.0001 20.0001 63.0001 20.0001 66.6667H16.6667C11.1334 66.6667 6.66675 62.2001 6.66675 56.6667V46.6667H43.3334C47.0001 46.6667 50.0001 43.6667 50.0001 40.0001V16.6667H56.1335C58.5335 16.6667 60.7335 17.9668 61.9335 20.0334L67.6333 30.0001H63.3334C61.5001 30.0001 60.0001 31.5001 60.0001 33.3334V43.3334C60.0001 45.1667 61.5001 46.6667 63.3334 46.6667H73.3334Z" fill="#EF3340" fill-opacity="0.1" stroke="#EF3340" stroke-width="5" stroke-linecap="round" stroke-linejoin="round"/>
<path d="M26.6667 73.3333C30.3486 73.3333 33.3333 70.3486 33.3333 66.6667C33.3333 62.9848 30.3486 60 26.6667 60C22.9848 60 20 62.9848 20 66.6667C20 70.3486 22.9848 73.3333 26.6667 73.3333Z" fill="#EF3340" fill-opacity="0.1" stroke="#EF3340" stroke-width="5" stroke-linecap="round" stroke-linejoin="round"/>
<path d="M53.3334 73.3333C57.0153 73.3333 60.0001 70.3486 60.0001 66.6667C60.0001 62.9848 57.0153 60 53.3334 60C49.6515 60 46.6667 62.9848 46.6667 66.6667C46.6667 70.3486 49.6515 73.3333 53.3334 73.3333Z" fill="#EF3340" fill-opacity="0.1" stroke="#EF3340" stroke-width="5" stroke-linecap="round" stroke-linejoin="round"/>
<path d="M73.3333 40V46.6667H63.3333C61.5 46.6667 60 45.1667 60 43.3333V33.3333C60 31.5 61.5 30 63.3333 30H67.6333L73.3333 40Z" fill="#EF3340" fill-opacity="0.1" stroke="#EF3340" stroke-width="5" stroke-linecap="round" stroke-linejoin="round"/>
<path d="M29.9999 16.6666C29.9999 20.6666 28.2333 24.2333 25.4666 26.6666C23.1 28.7333 20.0333 29.9999 16.6666 29.9999C9.29992 29.9999 3.33325 24.0333 3.33325 16.6666C3.33325 12.4666 5.26659 8.69993 8.33325 6.2666C10.6333 4.43327 13.5333 3.33325 16.6666 3.33325C24.0333 3.33325 29.9999 9.29992 29.9999 16.6666Z" fill="#EF3340" fill-opacity="0.1" stroke="#EF3340" stroke-width="5" stroke-miterlimit="10" stroke-linecap="round" stroke-linejoin="round"/>
<path d="M17.4999 12.5V17.5L13.3333 20" fill="#EF3340" fill-opacity="0.1"/>
<path d="M17.4999 12.5V17.5L13.3333 20" stroke="#EF3340" stroke-width="5" stroke-miterlimit="10" stroke-linecap="round" stroke-linejoin="round"/>
</svg>
