<svg width="40" height="40" viewBox="0 0 40 40" fill="none" xmlns="http://www.w3.org/2000/svg">
<path d="M24.9999 3.33334V20C24.9999 21.8333 23.4999 23.3333 21.6666 23.3333H3.33325V12.7C4.54992 14.15 6.41663 15.05 8.4833 15C10.1666 14.9667 11.6833 14.3167 12.8166 13.2333C13.3333 12.8 13.7666 12.25 14.1 11.65C14.7 10.6333 15.0333 9.4333 14.9999 8.1833C14.9499 6.2333 14.0833 4.51668 12.7333 3.33334H24.9999Z" fill="white" fill-opacity="0.1" stroke="white" stroke-width="2" stroke-linecap="round" stroke-linejoin="round"/>
<path d="M36.6666 23.3333V28.3333C36.6666 31.1 34.4333 33.3333 31.6666 33.3333H29.9999C29.9999 31.5 28.4999 30 26.6666 30C24.8333 30 23.3333 31.5 23.3333 33.3333H16.6666C16.6666 31.5 15.1666 30 13.3333 30C11.4999 30 9.99992 31.5 9.99992 33.3333H8.33325C5.56659 33.3333 3.33325 31.1 3.33325 28.3333V23.3333H21.6666C23.4999 23.3333 24.9999 21.8333 24.9999 20V8.33334H28.0666C29.2666 8.33334 30.3666 8.98336 30.9666 10.0167L33.8165 15H31.6666C30.7499 15 29.9999 15.75 29.9999 16.6667V21.6667C29.9999 22.5833 30.7499 23.3333 31.6666 23.3333H36.6666Z" fill="white" fill-opacity="0.1" stroke="white" stroke-width="2" stroke-linecap="round" stroke-linejoin="round"/>
<path d="M13.3333 36.6667C15.1743 36.6667 16.6667 35.1743 16.6667 33.3333C16.6667 31.4924 15.1743 30 13.3333 30C11.4924 30 10 31.4924 10 33.3333C10 35.1743 11.4924 36.6667 13.3333 36.6667Z" fill="white" fill-opacity="0.1" stroke="white" stroke-width="2" stroke-linecap="round" stroke-linejoin="round"/>
<path d="M26.6666 36.6667C28.5075 36.6667 29.9999 35.1743 29.9999 33.3333C29.9999 31.4924 28.5075 30 26.6666 30C24.8256 30 23.3333 31.4924 23.3333 33.3333C23.3333 35.1743 24.8256 36.6667 26.6666 36.6667Z" fill="white" fill-opacity="0.1" stroke="white" stroke-width="2" stroke-linecap="round" stroke-linejoin="round"/>
<path d="M36.6667 20V23.3333H31.6667C30.75 23.3333 30 22.5833 30 21.6667V16.6667C30 15.75 30.75 15 31.6667 15H33.8166L36.6667 20Z" fill="white" fill-opacity="0.1" stroke="white" stroke-width="2" stroke-linecap="round" stroke-linejoin="round"/>
<path d="M15 8.18331C15.0334 9.43331 14.7001 10.6333 14.1001 11.65C13.7667 12.25 13.3334 12.8 12.8167 13.2334C11.6834 14.3167 10.1668 14.9667 8.48342 15C6.41675 15.05 4.55004 14.15 3.33338 12.7C3.10004 12.45 2.90005 12.1667 2.71672 11.8834C2.06672 10.9 1.70004 9.7334 1.66671 8.4834C1.61671 6.3834 2.55003 4.46668 4.05003 3.21668C5.18336 2.28334 6.61666 1.70002 8.18333 1.66669C9.93333 1.63336 11.5334 2.26669 12.7334 3.33336C14.0834 4.51669 14.95 6.23331 15 8.18331Z" fill="white" fill-opacity="0.1" stroke="white" stroke-width="2" stroke-miterlimit="10" stroke-linecap="round" stroke-linejoin="round"/>
<path d="M5.7334 8.38337L7.41675 9.98331L10.9 6.61661" fill="white" fill-opacity="0.1"/>
<path d="M5.7334 8.38337L7.41675 9.98331L10.9 6.61661" stroke="white" stroke-width="2" stroke-linecap="round" stroke-linejoin="round"/>
</svg>
