<svg width="41" height="40" viewBox="0 0 41 40" fill="none" xmlns="http://www.w3.org/2000/svg">
<path d="M15.5001 31.6667C15.5001 32.9167 15.1501 34.1 14.5334 35.1C13.3834 37.0333 11.2667 38.3333 8.83341 38.3333C6.40008 38.3333 4.28342 37.0333 3.13342 35.1C2.51675 34.1 2.16675 32.9167 2.16675 31.6667C2.16675 27.9833 5.15008 25 8.83341 25C12.5167 25 15.5001 27.9833 15.5001 31.6667Z" fill="white" fill-opacity="0.1" stroke="white" stroke-width="2" stroke-miterlimit="10" stroke-linecap="round" stroke-linejoin="round"/>
<path d="M6.23584 31.6658L7.88584 33.3158L11.4358 30.0325" fill="white" fill-opacity="0.1"/>
<path d="M6.23584 31.6658L7.88584 33.3158L11.4358 30.0325" stroke="white" stroke-width="2" stroke-linecap="round" stroke-linejoin="round"/>
<path d="M30.0858 11.7499C29.6858 11.6833 29.2691 11.6666 28.8358 11.6666H12.1691C11.7024 11.6666 11.2524 11.7 10.8191 11.7666C11.0524 11.3 11.3858 10.8667 11.7858 10.4667L17.2024 5.03333C19.4858 2.76666 23.1858 2.76666 25.4691 5.03333L28.3858 7.98326C29.4524 9.03326 30.0191 10.3666 30.0858 11.7499Z" fill="white" fill-opacity="0.1" stroke="white" stroke-width="2" stroke-linecap="round" stroke-linejoin="round"/>
<path d="M37.1666 20V28.3333C37.1666 33.3333 33.8333 36.6667 28.8333 36.6667H13.2166C13.7333 36.2333 14.1832 35.7 14.5332 35.1C15.1499 34.1 15.4999 32.9167 15.4999 31.6667C15.4999 27.9833 12.5166 25 8.83325 25C6.83325 25 5.04992 25.8833 3.83325 27.2666V20C3.83325 15.4667 6.56658 12.3 10.8166 11.7667C11.2499 11.7 11.6999 11.6667 12.1666 11.6667H28.8333C29.2666 11.6667 29.6833 11.6833 30.0833 11.75C34.3833 12.25 37.1666 15.4333 37.1666 20Z" fill="white" fill-opacity="0.1" stroke="white" stroke-width="2" stroke-linecap="round" stroke-linejoin="round"/>
<path d="M37.1666 20.8333H32.1666C30.3333 20.8333 28.8333 22.3333 28.8333 24.1667C28.8333 26 30.3333 27.5 32.1666 27.5H37.1666" fill="white" fill-opacity="0.1"/>
<path d="M37.1666 20.8333H32.1666C30.3333 20.8333 28.8333 22.3333 28.8333 24.1667C28.8333 26 30.3333 27.5 32.1666 27.5H37.1666" stroke="white" stroke-width="2" stroke-linecap="round" stroke-linejoin="round"/>
</svg>
